<svg xmlns="http://www.w3.org/2000/svg" width="1280" height="720" viewBox="0 0 1280 720"><g transform="translate(0,0)"><path d="M211.968,106.016 L172.032,125.984" stroke="#543d2b" stroke-width="11"/><path d="M211.968,104.516 L172.032,124.484" stroke="#ae8050" stroke-width="7"/><path d="M233.2494,117.6276 L189.8617,135.7058" stroke="#543d2b" stroke-width="11"/><path d="M233.2494,116.1276 L189.8617,134.2058" stroke="#ae8050" stroke-width="7"/><path d="M251.0518,129.5012 L204.0593,145.1654" stroke="#543d2b" stroke-width="11"/><path d="M251.0518,128.0012 L204.0593,143.6654" stroke="#ae8050" stroke-width="7"/><path d="M265.2577,141.6856 L214.7423,154.3144" stroke="#543d2b" stroke-width="11"/><path d="M265.2577,140.1856 L214.7423,152.8144" stroke="#ae8050" stroke-width="7"/><path d="M275.6788,154.2017 L222.099,163.1316" stroke="#543d2b" stroke-width="11"/><path d="M275.6788,152.7017 L222.099,161.6316" stroke="#ae8050" stroke-width="7"/><path d="M282.077,167.0121 L226.3674,171.6546" stroke="#543d2b" stroke-width="11"/><path d="M282.077,165.5121 L226.3674,170.1546" stroke="#ae8050" stroke-width="7"/><path d="M284.239,180 L227.761,180" stroke="#543d2b" stroke-width="11"/><path d="M284.239,178.5 L227.761,178.5" stroke="#ae8050" stroke-width="7"/><path d="M282.077,192.9879 L226.3674,188.3454" stroke="#543d2b" stroke-width="11"/><path d="M282.077,191.4879 L226.3674,186.8454" stroke="#ae8050" stroke-width="7"/><path d="M275.6788,205.7983 L222.099,196.8684" stroke="#543d2b" stroke-width="11"/><path d="M275.6788,204.2983 L222.099,195.3684" stroke="#ae8050" stroke-width="7"/><path d="M265.2577,218.3144 L214.7423,205.6856" stroke="#543d2b" stroke-width="11"/><path d="M265.2577,216.8144 L214.7423,204.1856" stroke="#ae8050" stroke-width="7"/><path d="M251.0518,230.4988 L204.0593,214.8346" stroke="#543d2b" stroke-width="11"/><path d="M251.0518,228.9988 L204.0593,213.3346" stroke="#ae8050" stroke-width="7"/><path d="M233.2494,242.3724 L189.8617,224.2942" stroke="#543d2b" stroke-width="11"/><path d="M233.2494,240.8724 L189.8617,222.7942" stroke="#ae8050" stroke-width="7"/><path d="M211.968,253.984 L172.032,234.016" stroke="#543d2b" stroke-width="11"/><path d="M211.968,252.484 L172.032,232.516" stroke="#ae8050" stroke-width="7"/><path d="M203.52,110.24 L206.2795,111.6343 L208.9847,113.0305 L211.6354,114.4287 L214.2317,115.829 L216.7736,117.2313 L219.2608,118.6359 L221.6934,120.0427 L224.0712,121.4518 L226.3942,122.8633 L228.6624,124.2772 L230.8754,125.6935 L233.0334,127.1125 L235.1361,128.534 L237.1833,129.9582 L239.1751,131.3851 L241.1111,132.8148 L242.9913,134.2473 L244.8154,135.6827 L246.5832,137.121 L248.2947,138.5622 L249.9495,140.0064 L251.5474,141.4536 L253.0883,142.9038 L254.5718,144.3571 L255.9977,145.8133 L257.3658,147.2727 L258.6758,148.735 L259.9274,150.2003 L261.1204,151.6686 L262.2544,153.1398 L263.3293,154.6139 L264.3446,156.0907 L265.3001,157.5703 L266.1956,159.0525 L267.0308,160.5372 L267.8053,162.0243 L268.519,163.5137 L269.1715,165.0053 L269.7627,166.4988 L270.2923,167.9942 L270.7601,169.4912 L271.1659,170.9896 L271.5096,172.4894 L271.791,173.9902 L272.01,175.4919 L272.1665,176.9942 L272.2604,178.497 L272.2917,180 L272.2604,181.503 L272.1665,183.0058 L272.01,184.5081 L271.791,186.0098 L271.5096,187.5106 L271.1659,189.0104 L270.7601,190.5088 L270.2923,192.0058 L269.7627,193.5012 L269.1715,194.9947 L268.519,196.4863 L267.8053,197.9757 L267.0308,199.4628 L266.1956,200.9475 L265.3001,202.4297 L264.3446,203.9093 L263.3293,205.3861 L262.2544,206.8602 L261.1204,208.3314 L259.9274,209.7997 L258.6758,211.265 L257.3658,212.7273 L255.9977,214.1867 L254.5718,215.6429 L253.0883,217.0962 L251.5474,218.5464 L249.9495,219.9936 L248.2947,221.4378 L246.5832,222.879 L244.8154,224.3173 L242.9913,225.7527 L241.1111,227.1852 L239.1751,228.6149 L237.1833,230.0418 L235.1361,231.466 L233.0334,232.8875 L230.8754,234.3065 L228.6624,235.7228 L226.3942,237.1367 L224.0712,238.5482 L221.6934,239.9573 L219.2608,241.3641 L216.7736,242.7687 L214.2317,244.171 L211.6354,245.5713 L208.9847,246.9695 L206.2795,248.3657 L203.52,249.76" fill="none" stroke="#454844" stroke-width="7"/><path d="M203.52,110.24 L206.2795,111.6343 L208.9847,113.0305 L211.6354,114.4287 L214.2317,115.829 L216.7736,117.2313 L219.2608,118.6359 L221.6934,120.0427 L224.0712,121.4518 L226.3942,122.8633 L228.6624,124.2772 L230.8754,125.6935 L233.0334,127.1125 L235.1361,128.534 L237.1833,129.9582 L239.1751,131.3851 L241.1111,132.8148 L242.9913,134.2473 L244.8154,135.6827 L246.5832,137.121 L248.2947,138.5622 L249.9495,140.0064 L251.5474,141.4536 L253.0883,142.9038 L254.5718,144.3571 L255.9977,145.8133 L257.3658,147.2727 L258.6758,148.735 L259.9274,150.2003 L261.1204,151.6686 L262.2544,153.1398 L263.3293,154.6139 L264.3446,156.0907 L265.3001,157.5703 L266.1956,159.0525 L267.0308,160.5372 L267.8053,162.0243 L268.519,163.5137 L269.1715,165.0053 L269.7627,166.4988 L270.2923,167.9942 L270.7601,169.4912 L271.1659,170.9896 L271.5096,172.4894 L271.791,173.9902 L272.01,175.4919 L272.1665,176.9942 L272.2604,178.497 L272.2917,180 L272.2604,181.503 L272.1665,183.0058 L272.01,184.5081 L271.791,186.0098 L271.5096,187.5106 L271.1659,189.0104 L270.7601,190.5088 L270.2923,192.0058 L269.7627,193.5012 L269.1715,194.9947 L268.519,196.4863 L267.8053,197.9757 L267.0308,199.4628 L266.1956,200.9475 L265.3001,202.4297 L264.3446,203.9093 L263.3293,205.3861 L262.2544,206.8602 L261.1204,208.3314 L259.9274,209.7997 L258.6758,211.265 L257.3658,212.7273 L255.9977,214.1867 L254.5718,215.6429 L253.0883,217.0962 L251.5474,218.5464 L249.9495,219.9936 L248.2947,221.4378 L246.5832,222.879 L244.8154,224.3173 L242.9913,225.7527 L241.1111,227.1852 L239.1751,228.6149 L237.1833,230.0418 L235.1361,231.466 L233.0334,232.8875 L230.8754,234.3065 L228.6624,235.7228 L226.3942,237.1367 L224.0712,238.5482 L221.6934,239.9573 L219.2608,241.3641 L216.7736,242.7687 L214.2317,244.171 L211.6354,245.5713 L208.9847,246.9695 L206.2795,248.3657 L203.52,249.76" fill="none" stroke="#b8beb8" stroke-width="3" transform="translate(-.5,-1)"/><path d="M180.48,121.76 L182.9983,123.0324 L185.4598,124.3028 L187.8646,125.5713 L190.2127,126.8377 L192.5042,128.102 L194.7392,129.3641 L196.9177,130.624 L199.0399,131.8815 L201.1058,133.1367 L203.1154,134.3895 L205.069,135.6398 L206.9666,136.8875 L208.8084,138.1327 L210.5944,139.3751 L212.3249,140.6149 L214,141.8518 L215.6199,143.086 L217.1846,144.3173 L218.6945,145.5457 L220.1498,146.7711 L221.5505,147.9936 L222.897,149.2131 L224.1895,150.4295 L225.4282,151.6429 L226.6134,152.8533 L227.7453,154.0607 L228.8242,155.265 L229.8504,156.4664 L230.8241,157.6647 L231.7456,158.8602 L232.6152,160.0528 L233.4332,161.2426 L234.1999,162.4297 L234.9155,163.6142 L235.5803,164.7961 L236.1947,165.9757 L236.7588,167.1529 L237.2729,168.3281 L237.7373,169.5012 L238.1521,170.6725 L238.5177,171.8422 L238.8341,173.0104 L239.1015,174.1773 L239.3201,175.3431 L239.49,176.5081 L239.6113,177.6725 L239.684,178.8363 L239.7083,180 L239.684,181.1637 L239.6113,182.3275 L239.49,183.4919 L239.3201,184.6569 L239.1015,185.8227 L238.8341,186.9896 L238.5177,188.1578 L238.1521,189.3275 L237.7373,190.4988 L237.2729,191.6719 L236.7588,192.8471 L236.1947,194.0243 L235.5803,195.2039 L234.9155,196.3858 L234.1999,197.5703 L233.4332,198.7574 L232.6152,199.9472 L231.7456,201.1398 L230.8241,202.3353 L229.8504,203.5336 L228.8242,204.735 L227.7453,205.9393 L226.6134,207.1467 L225.4282,208.3571 L224.1895,209.5705 L222.897,210.7869 L221.5505,212.0064 L220.1498,213.2289 L218.6945,214.4543 L217.1846,215.6827 L215.6199,216.914 L214,218.1482 L212.3249,219.3851 L210.5944,220.6249 L208.8084,221.8673 L206.9666,223.1125 L205.069,224.3602 L203.1154,225.6105 L201.1058,226.8633 L199.0399,228.1185 L196.9177,229.376 L194.7392,230.6359 L192.5042,231.898 L190.2127,233.1623 L187.8646,234.4287 L185.4598,235.6972 L182.9983,236.9676 L180.48,238.24" fill="none" stroke="#454844" stroke-width="7"/><path d="M180.48,121.76 L182.9983,123.0324 L185.4598,124.3028 L187.8646,125.5713 L190.2127,126.8377 L192.5042,128.102 L194.7392,129.3641 L196.9177,130.624 L199.0399,131.8815 L201.1058,133.1367 L203.1154,134.3895 L205.069,135.6398 L206.9666,136.8875 L208.8084,138.1327 L210.5944,139.3751 L212.3249,140.6149 L214,141.8518 L215.6199,143.086 L217.1846,144.3173 L218.6945,145.5457 L220.1498,146.7711 L221.5505,147.9936 L222.897,149.2131 L224.1895,150.4295 L225.4282,151.6429 L226.6134,152.8533 L227.7453,154.0607 L228.8242,155.265 L229.8504,156.4664 L230.8241,157.6647 L231.7456,158.8602 L232.6152,160.0528 L233.4332,161.2426 L234.1999,162.4297 L234.9155,163.6142 L235.5803,164.7961 L236.1947,165.9757 L236.7588,167.1529 L237.2729,168.3281 L237.7373,169.5012 L238.1521,170.6725 L238.5177,171.8422 L238.8341,173.0104 L239.1015,174.1773 L239.3201,175.3431 L239.49,176.5081 L239.6113,177.6725 L239.684,178.8363 L239.7083,180 L239.684,181.1637 L239.6113,182.3275 L239.49,183.4919 L239.3201,184.6569 L239.1015,185.8227 L238.8341,186.9896 L238.5177,188.1578 L238.1521,189.3275 L237.7373,190.4988 L237.2729,191.6719 L236.7588,192.8471 L236.1947,194.0243 L235.5803,195.2039 L234.9155,196.3858 L234.1999,197.5703 L233.4332,198.7574 L232.6152,199.9472 L231.7456,201.1398 L230.8241,202.3353 L229.8504,203.5336 L228.8242,204.735 L227.7453,205.9393 L226.6134,207.1467 L225.4282,208.3571 L224.1895,209.5705 L222.897,210.7869 L221.5505,212.0064 L220.1498,213.2289 L218.6945,214.4543 L217.1846,215.6827 L215.6199,216.914 L214,218.1482 L212.3249,219.3851 L210.5944,220.6249 L208.8084,221.8673 L206.9666,223.1125 L205.069,224.3602 L203.1154,225.6105 L201.1058,226.8633 L199.0399,228.1185 L196.9177,229.376 L194.7392,230.6359 L192.5042,231.898 L190.2127,233.1623 L187.8646,234.4287 L185.4598,235.6972 L182.9983,236.9676 L180.48,238.24" fill="none" stroke="#b8beb8" stroke-width="3" transform="translate(-.5,-1)"/></g><g transform="translate(640,0)"><path d="M467.968,125.984 L428.032,106.016" stroke="#543d2b" stroke-width="11"/><path d="M467.968,124.484 L428.032,104.516" stroke="#ae8050" stroke-width="7"/><path d="M444.7448,136.6247 L408.5885,114.9309" stroke="#543d2b" stroke-width="11"/><path d="M444.7448,135.1247 L408.5885,113.4309" stroke="#ae8050" stroke-width="7"/><path d="M420.9975,145.5259 L389.6691,122.0296" stroke="#543d2b" stroke-width="11"/><path d="M420.9975,144.0259 L389.6691,120.5296" stroke="#ae8050" stroke-width="7"/><path d="M396.6289,152.6289 L371.3711,127.3711" stroke="#543d2b" stroke-width="11"/><path d="M396.6289,151.1289 L371.3711,125.8711" stroke="#ae8050" stroke-width="7"/><path d="M371.5966,157.8394 L353.7367,131.0495" stroke="#543d2b" stroke-width="11"/><path d="M371.5966,156.3394 L353.7367,129.5495" stroke="#ae8050" stroke-width="7"/><path d="M345.9758,161.0385 L336.6909,133.1837" stroke="#543d2b" stroke-width="11"/><path d="M345.9758,159.5385 L336.6909,131.6837" stroke="#ae8050" stroke-width="7"/><path d="M320,162.1195 L320,133.8805" stroke="#543d2b" stroke-width="11"/><path d="M320,160.6195 L320,132.3805" stroke="#ae8050" stroke-width="7"/><path d="M294.0242,161.0385 L303.3091,133.1837" stroke="#543d2b" stroke-width="11"/><path d="M294.0242,159.5385 L303.3091,131.6837" stroke="#ae8050" stroke-width="7"/><path d="M268.4034,157.8394 L286.2633,131.0495" stroke="#543d2b" stroke-width="11"/><path d="M268.4034,156.3394 L286.2633,129.5495" stroke="#ae8050" stroke-width="7"/><path d="M243.3711,152.6289 L268.6289,127.3711" stroke="#543d2b" stroke-width="11"/><path d="M243.3711,151.1289 L268.6289,125.8711" stroke="#ae8050" stroke-width="7"/><path d="M219.0025,145.5259 L250.3309,122.0296" stroke="#543d2b" stroke-width="11"/><path d="M219.0025,144.0259 L250.3309,120.5296" stroke="#ae8050" stroke-width="7"/><path d="M195.2552,136.6247 L231.4115,114.9309" stroke="#543d2b" stroke-width="11"/><path d="M195.2552,135.1247 L231.4115,113.4309" stroke="#ae8050" stroke-width="7"/><path d="M172.032,125.984 L211.968,106.016" stroke="#543d2b" stroke-width="11"/><path d="M172.032,124.484 L211.968,104.516" stroke="#ae8050" stroke-width="7"/><path d="M459.52,121.76 L456.7314,123.1398 L453.939,124.4923 L451.1426,125.8177 L448.3421,127.1159 L445.5373,128.3868 L442.7282,129.6304 L439.9146,130.8467 L437.0964,132.0356 L434.2735,133.1971 L431.4457,134.3312 L428.6129,135.4377 L425.775,136.5167 L422.932,137.568 L420.0836,138.5917 L417.2297,139.5875 L414.3704,140.5556 L411.5054,141.4956 L408.6346,142.4077 L405.758,143.2916 L402.8756,144.1473 L399.9872,144.9747 L397.0928,145.7737 L394.1924,146.5441 L391.2859,147.2859 L388.3733,147.9989 L385.4547,148.6829 L382.53,149.3379 L379.5994,149.9637 L376.6628,150.5602 L373.7204,151.1272 L370.7723,151.6646 L367.8186,152.1723 L364.8594,152.6501 L361.895,153.0978 L358.9256,153.5154 L355.9513,153.9027 L352.9725,154.2595 L349.9894,154.5858 L347.0024,154.8813 L344.0117,155.1461 L341.0177,155.3801 L338.0207,155.583 L335.0213,155.7548 L332.0196,155.8955 L329.0163,156.005 L326.0116,156.0833 L323.006,156.1302 L320,156.1459 L316.994,156.1302 L313.9884,156.0833 L310.9837,156.005 L307.9804,155.8955 L304.9787,155.7548 L301.9793,155.583 L298.9823,155.3801 L295.9883,155.1461 L292.9976,154.8813 L290.0106,154.5858 L287.0275,154.2595 L284.0487,153.9027 L281.0744,153.5154 L278.105,153.0978 L275.1406,152.6501 L272.1814,152.1723 L269.2277,151.6646 L266.2796,151.1272 L263.3372,150.5602 L260.4006,149.9637 L257.47,149.3379 L254.5453,148.6829 L251.6267,147.9989 L248.7141,147.2859 L245.8076,146.5441 L242.9072,145.7737 L240.0128,144.9747 L237.1244,144.1473 L234.242,143.2916 L231.3654,142.4077 L228.4946,141.4956 L225.6296,140.5556 L222.7703,139.5875 L219.9164,138.5917 L217.068,137.568 L214.225,136.5167 L211.3871,135.4377 L208.5543,134.3312 L205.7265,133.1971 L202.9036,132.0356 L200.0854,130.8467 L197.2718,129.6304 L194.4627,128.3868 L191.6579,127.1159 L188.8574,125.8177 L186.061,124.4923 L183.2686,123.1398 L180.48,121.76" fill="none" stroke="#454844" stroke-width="7"/><path d="M459.52,121.76 L456.7314,123.1398 L453.939,124.4923 L451.1426,125.8177 L448.3421,127.1159 L445.5373,128.3868 L442.7282,129.6304 L439.9146,130.8467 L437.0964,132.0356 L434.2735,133.1971 L431.4457,134.3312 L428.6129,135.4377 L425.775,136.5167 L422.932,137.568 L420.0836,138.5917 L417.2297,139.5875 L414.3704,140.5556 L411.5054,141.4956 L408.6346,142.4077 L405.758,143.2916 L402.8756,144.1473 L399.9872,144.9747 L397.0928,145.7737 L394.1924,146.5441 L391.2859,147.2859 L388.3733,147.9989 L385.4547,148.6829 L382.53,149.3379 L379.5994,149.9637 L376.6628,150.5602 L373.7204,151.1272 L370.7723,151.6646 L367.8186,152.1723 L364.8594,152.6501 L361.895,153.0978 L358.9256,153.5154 L355.9513,153.9027 L352.9725,154.2595 L349.9894,154.5858 L347.0024,154.8813 L344.0117,155.1461 L341.0177,155.3801 L338.0207,155.583 L335.0213,155.7548 L332.0196,155.8955 L329.0163,156.005 L326.0116,156.0833 L323.006,156.1302 L320,156.1459 L316.994,156.1302 L313.9884,156.0833 L310.9837,156.005 L307.9804,155.8955 L304.9787,155.7548 L301.9793,155.583 L298.9823,155.3801 L295.9883,155.1461 L292.9976,154.8813 L290.0106,154.5858 L287.0275,154.2595 L284.0487,153.9027 L281.0744,153.5154 L278.105,153.0978 L275.1406,152.6501 L272.1814,152.1723 L269.2277,151.6646 L266.2796,151.1272 L263.3372,150.5602 L260.4006,149.9637 L257.47,149.3379 L254.5453,148.6829 L251.6267,147.9989 L248.7141,147.2859 L245.8076,146.5441 L242.9072,145.7737 L240.0128,144.9747 L237.1244,144.1473 L234.242,143.2916 L231.3654,142.4077 L228.4946,141.4956 L225.6296,140.5556 L222.7703,139.5875 L219.9164,138.5917 L217.068,137.568 L214.225,136.5167 L211.3871,135.4377 L208.5543,134.3312 L205.7265,133.1971 L202.9036,132.0356 L200.0854,130.8467 L197.2718,129.6304 L194.4627,128.3868 L191.6579,127.1159 L188.8574,125.8177 L186.061,124.4923 L183.2686,123.1398 L180.48,121.76" fill="none" stroke="#b8beb8" stroke-width="3" transform="translate(-.5,-1)"/><path d="M436.48,110.24 L433.9352,111.4991 L431.3943,112.7299 L428.8574,113.9323 L426.3246,115.1063 L423.796,116.2521 L421.2718,117.3696 L418.7521,118.4589 L416.2369,119.5199 L413.7265,120.5529 L411.221,121.5577 L408.7204,122.5345 L406.225,123.4833 L403.7347,124.4042 L401.2498,125.2972 L398.7703,126.1625 L396.2963,127 L393.828,127.8099 L391.3654,128.5923 L388.9086,129.3473 L386.4577,130.0749 L384.0128,130.7753 L381.5739,131.4485 L379.141,132.0948 L376.7141,132.7141 L374.2933,133.3067 L371.8786,133.8727 L369.47,134.4121 L367.0673,134.9252 L364.6705,135.412 L362.2796,135.8728 L359.8944,136.3076 L357.5148,136.7166 L355.1406,137.0999 L352.7716,137.4577 L350.4078,137.7902 L348.0487,138.0973 L345.6941,138.3794 L343.3439,138.6365 L340.9976,138.8687 L338.655,139.0761 L336.3157,139.2588 L333.9793,139.417 L331.6454,139.5507 L329.3137,139.66 L326.9837,139.745 L324.6551,139.8056 L322.3273,139.842 L320,139.8541 L317.6727,139.842 L315.3449,139.8056 L313.0163,139.745 L310.6863,139.66 L308.3546,139.5507 L306.0207,139.417 L303.6843,139.2588 L301.345,139.0761 L299.0024,138.8687 L296.6561,138.6365 L294.3059,138.3794 L291.9513,138.0973 L289.5922,137.7902 L287.2284,137.4577 L284.8594,137.0999 L282.4852,136.7166 L280.1056,136.3076 L277.7204,135.8728 L275.3295,135.412 L272.9327,134.9252 L270.53,134.4121 L268.1214,133.8727 L265.7067,133.3067 L263.2859,132.7141 L260.859,132.0948 L258.4261,131.4485 L255.9872,130.7753 L253.5423,130.0749 L251.0914,129.3473 L248.6346,128.5923 L246.172,127.8099 L243.7037,127 L241.2297,126.1625 L238.7502,125.2972 L236.2653,124.4042 L233.775,123.4833 L231.2796,122.5345 L228.779,121.5577 L226.2735,120.5529 L223.7631,119.5199 L221.2479,118.4589 L218.7282,117.3696 L216.204,116.2521 L213.6754,115.1063 L211.1426,113.9323 L208.6057,112.7299 L206.0648,111.4991 L203.52,110.24" fill="none" stroke="#454844" stroke-width="7"/><path d="M436.48,110.24 L433.9352,111.4991 L431.3943,112.7299 L428.8574,113.9323 L426.3246,115.1063 L423.796,116.2521 L421.2718,117.3696 L418.7521,118.4589 L416.2369,119.5199 L413.7265,120.5529 L411.221,121.5577 L408.7204,122.5345 L406.225,123.4833 L403.7347,124.4042 L401.2498,125.2972 L398.7703,126.1625 L396.2963,127 L393.828,127.8099 L391.3654,128.5923 L388.9086,129.3473 L386.4577,130.0749 L384.0128,130.7753 L381.5739,131.4485 L379.141,132.0948 L376.7141,132.7141 L374.2933,133.3067 L371.8786,133.8727 L369.47,134.4121 L367.0673,134.9252 L364.6705,135.412 L362.2796,135.8728 L359.8944,136.3076 L357.5148,136.7166 L355.1406,137.0999 L352.7716,137.4577 L350.4078,137.7902 L348.0487,138.0973 L345.6941,138.3794 L343.3439,138.6365 L340.9976,138.8687 L338.655,139.0761 L336.3157,139.2588 L333.9793,139.417 L331.6454,139.5507 L329.3137,139.66 L326.9837,139.745 L324.6551,139.8056 L322.3273,139.842 L320,139.8541 L317.6727,139.842 L315.3449,139.8056 L313.0163,139.745 L310.6863,139.66 L308.3546,139.5507 L306.0207,139.417 L303.6843,139.2588 L301.345,139.0761 L299.0024,138.8687 L296.6561,138.6365 L294.3059,138.3794 L291.9513,138.0973 L289.5922,137.7902 L287.2284,137.4577 L284.8594,137.0999 L282.4852,136.7166 L280.1056,136.3076 L277.7204,135.8728 L275.3295,135.412 L272.9327,134.9252 L270.53,134.4121 L268.1214,133.8727 L265.7067,133.3067 L263.2859,132.7141 L260.859,132.0948 L258.4261,131.4485 L255.9872,130.7753 L253.5423,130.0749 L251.0914,129.3473 L248.6346,128.5923 L246.172,127.8099 L243.7037,127 L241.2297,126.1625 L238.7502,125.2972 L236.2653,124.4042 L233.775,123.4833 L231.2796,122.5345 L228.779,121.5577 L226.2735,120.5529 L223.7631,119.5199 L221.2479,118.4589 L218.7282,117.3696 L216.204,116.2521 L213.6754,115.1063 L211.1426,113.9323 L208.6057,112.7299 L206.0648,111.4991 L203.52,110.24" fill="none" stroke="#b8beb8" stroke-width="3" transform="translate(-.5,-1)"/></g><g transform="translate(0,360)"><path d="M428.032,253.984 L467.968,234.016" stroke="#543d2b" stroke-width="11"/><path d="M428.032,252.484 L467.968,232.516" stroke="#ae8050" stroke-width="7"/><path d="M406.7506,242.3724 L450.1383,224.2942" stroke="#543d2b" stroke-width="11"/><path d="M406.7506,240.8724 L450.1383,222.7942" stroke="#ae8050" stroke-width="7"/><path d="M388.9482,230.4988 L435.9407,214.8346" stroke="#543d2b" stroke-width="11"/><path d="M388.9482,228.9988 L435.9407,213.3346" stroke="#ae8050" stroke-width="7"/><path d="M374.7423,218.3144 L425.2577,205.6856" stroke="#543d2b" stroke-width="11"/><path d="M374.7423,216.8144 L425.2577,204.1856" stroke="#ae8050" stroke-width="7"/><path d="M364.3212,205.7983 L417.901,196.8684" stroke="#543d2b" stroke-width="11"/><path d="M364.3212,204.2983 L417.901,195.3684" stroke="#ae8050" stroke-width="7"/><path d="M357.923,192.9879 L413.6326,188.3454" stroke="#543d2b" stroke-width="11"/><path d="M357.923,191.4879 L413.6326,186.8454" stroke="#ae8050" stroke-width="7"/><path d="M355.761,180 L412.239,180" stroke="#543d2b" stroke-width="11"/><path d="M355.761,178.5 L412.239,178.5" stroke="#ae8050" stroke-width="7"/><path d="M357.923,167.0121 L413.6326,171.6546" stroke="#543d2b" stroke-width="11"/><path d="M357.923,165.5121 L413.6326,170.1546" stroke="#ae8050" stroke-width="7"/><path d="M364.3212,154.2017 L417.901,163.1316" stroke="#543d2b" stroke-width="11"/><path d="M364.3212,152.7017 L417.901,161.6316" stroke="#ae8050" stroke-width="7"/><path d="M374.7423,141.6856 L425.2577,154.3144" stroke="#543d2b" stroke-width="11"/><path d="M374.7423,140.1856 L425.2577,152.8144" stroke="#ae8050" stroke-width="7"/><path d="M388.9482,129.5012 L435.9407,145.1654" stroke="#543d2b" stroke-width="11"/><path d="M388.9482,128.0012 L435.9407,143.6654" stroke="#ae8050" stroke-width="7"/><path d="M406.7506,117.6276 L450.1383,135.7058" stroke="#543d2b" stroke-width="11"/><path d="M406.7506,116.1276 L450.1383,134.2058" stroke="#ae8050" stroke-width="7"/><path d="M428.032,106.016 L467.968,125.984" stroke="#543d2b" stroke-width="11"/><path d="M428.032,104.516 L467.968,124.484" stroke="#ae8050" stroke-width="7"/><path d="M436.48,249.76 L433.7205,248.3657 L431.0153,246.9695 L428.3646,245.5713 L425.7683,244.171 L423.2264,242.7687 L420.7392,241.3641 L418.3066,239.9573 L415.9288,238.5482 L413.6058,237.1367 L411.3376,235.7228 L409.1246,234.3065 L406.9666,232.8875 L404.8639,231.466 L402.8167,230.0418 L400.8249,228.6149 L398.8889,227.1852 L397.0087,225.7527 L395.1846,224.3173 L393.4168,222.879 L391.7053,221.4378 L390.0505,219.9936 L388.4526,218.5464 L386.9117,217.0962 L385.4282,215.6429 L384.0023,214.1867 L382.6342,212.7273 L381.3242,211.265 L380.0726,209.7997 L378.8796,208.3314 L377.7456,206.8602 L376.6707,205.3861 L375.6554,203.9093 L374.6999,202.4297 L373.8044,200.9475 L372.9692,199.4628 L372.1947,197.9757 L371.481,196.4863 L370.8285,194.9947 L370.2373,193.5012 L369.7077,192.0058 L369.2399,190.5088 L368.8341,189.0104 L368.4904,187.5106 L368.209,186.0098 L367.99,184.5081 L367.8335,183.0058 L367.7396,181.503 L367.7083,180 L367.7396,178.497 L367.8335,176.9942 L367.99,175.4919 L368.209,173.9902 L368.4904,172.4894 L368.8341,170.9896 L369.2399,169.4912 L369.7077,167.9942 L370.2373,166.4988 L370.8285,165.0053 L371.481,163.5137 L372.1947,162.0243 L372.9692,160.5372 L373.8044,159.0525 L374.6999,157.5703 L375.6554,156.0907 L376.6707,154.6139 L377.7456,153.1398 L378.8796,151.6686 L380.0726,150.2003 L381.3242,148.735 L382.6342,147.2727 L384.0023,145.8133 L385.4282,144.3571 L386.9117,142.9038 L388.4526,141.4536 L390.0505,140.0064 L391.7053,138.5622 L393.4168,137.121 L395.1846,135.6827 L397.0087,134.2473 L398.8889,132.8148 L400.8249,131.3851 L402.8167,129.9582 L404.8639,128.534 L406.9666,127.1125 L409.1246,125.6935 L411.3376,124.2772 L413.6058,122.8633 L415.9288,121.4518 L418.3066,120.0427 L420.7392,118.6359 L423.2264,117.2313 L425.7683,115.829 L428.3646,114.4287 L431.0153,113.0305 L433.7205,111.6343 L436.48,110.24" fill="none" stroke="#454844" stroke-width="7"/><path d="M436.48,249.76 L433.7205,248.3657 L431.0153,246.9695 L428.3646,245.5713 L425.7683,244.171 L423.2264,242.7687 L420.7392,241.3641 L418.3066,239.9573 L415.9288,238.5482 L413.6058,237.1367 L411.3376,235.7228 L409.1246,234.3065 L406.9666,232.8875 L404.8639,231.466 L402.8167,230.0418 L400.8249,228.6149 L398.8889,227.1852 L397.0087,225.7527 L395.1846,224.3173 L393.4168,222.879 L391.7053,221.4378 L390.0505,219.9936 L388.4526,218.5464 L386.9117,217.0962 L385.4282,215.6429 L384.0023,214.1867 L382.6342,212.7273 L381.3242,211.265 L380.0726,209.7997 L378.8796,208.3314 L377.7456,206.8602 L376.6707,205.3861 L375.6554,203.9093 L374.6999,202.4297 L373.8044,200.9475 L372.9692,199.4628 L372.1947,197.9757 L371.481,196.4863 L370.8285,194.9947 L370.2373,193.5012 L369.7077,192.0058 L369.2399,190.5088 L368.8341,189.0104 L368.4904,187.5106 L368.209,186.0098 L367.99,184.5081 L367.8335,183.0058 L367.7396,181.503 L367.7083,180 L367.7396,178.497 L367.8335,176.9942 L367.99,175.4919 L368.209,173.9902 L368.4904,172.4894 L368.8341,170.9896 L369.2399,169.4912 L369.7077,167.9942 L370.2373,166.4988 L370.8285,165.0053 L371.481,163.5137 L372.1947,162.0243 L372.9692,160.5372 L373.8044,159.0525 L374.6999,157.5703 L375.6554,156.0907 L376.6707,154.6139 L377.7456,153.1398 L378.8796,151.6686 L380.0726,150.2003 L381.3242,148.735 L382.6342,147.2727 L384.0023,145.8133 L385.4282,144.3571 L386.9117,142.9038 L388.4526,141.4536 L390.0505,140.0064 L391.7053,138.5622 L393.4168,137.121 L395.1846,135.6827 L397.0087,134.2473 L398.8889,132.8148 L400.8249,131.3851 L402.8167,129.9582 L404.8639,128.534 L406.9666,127.1125 L409.1246,125.6935 L411.3376,124.2772 L413.6058,122.8633 L415.9288,121.4518 L418.3066,120.0427 L420.7392,118.6359 L423.2264,117.2313 L425.7683,115.829 L428.3646,114.4287 L431.0153,113.0305 L433.7205,111.6343 L436.48,110.24" fill="none" stroke="#b8beb8" stroke-width="3" transform="translate(-.5,-1)"/><path d="M459.52,238.24 L457.0017,236.9676 L454.5402,235.6972 L452.1354,234.4287 L449.7873,233.1623 L447.4958,231.898 L445.2608,230.6359 L443.0823,229.376 L440.9601,228.1185 L438.8942,226.8633 L436.8846,225.6105 L434.931,224.3602 L433.0334,223.1125 L431.1916,221.8673 L429.4056,220.6249 L427.6751,219.3851 L426,218.1482 L424.3801,216.914 L422.8154,215.6827 L421.3055,214.4543 L419.8502,213.2289 L418.4495,212.0064 L417.103,210.7869 L415.8105,209.5705 L414.5718,208.3571 L413.3866,207.1467 L412.2547,205.9393 L411.1758,204.735 L410.1496,203.5336 L409.1759,202.3353 L408.2544,201.1398 L407.3848,199.9472 L406.5668,198.7574 L405.8001,197.5703 L405.0845,196.3858 L404.4197,195.2039 L403.8053,194.0243 L403.2412,192.8471 L402.7271,191.6719 L402.2627,190.4988 L401.8479,189.3275 L401.4823,188.1578 L401.1659,186.9896 L400.8985,185.8227 L400.6799,184.6569 L400.51,183.4919 L400.3887,182.3275 L400.316,181.1637 L400.2917,180 L400.316,178.8363 L400.3887,177.6725 L400.51,176.5081 L400.6799,175.3431 L400.8985,174.1773 L401.1659,173.0104 L401.4823,171.8422 L401.8479,170.6725 L402.2627,169.5012 L402.7271,168.3281 L403.2412,167.1529 L403.8053,165.9757 L404.4197,164.7961 L405.0845,163.6142 L405.8001,162.4297 L406.5668,161.2426 L407.3848,160.0528 L408.2544,158.8602 L409.1759,157.6647 L410.1496,156.4664 L411.1758,155.265 L412.2547,154.0607 L413.3866,152.8533 L414.5718,151.6429 L415.8105,150.4295 L417.103,149.2131 L418.4495,147.9936 L419.8502,146.7711 L421.3055,145.5457 L422.8154,144.3173 L424.3801,143.086 L426,141.8518 L427.6751,140.6149 L429.4056,139.3751 L431.1916,138.1327 L433.0334,136.8875 L434.931,135.6398 L436.8846,134.3895 L438.8942,133.1367 L440.9601,131.8815 L443.0823,130.624 L445.2608,129.3641 L447.4958,128.102 L449.7873,126.8377 L452.1354,125.5713 L454.5402,124.3028 L457.0017,123.0324 L459.52,121.76" fill="none" stroke="#454844" stroke-width="7"/><path d="M459.52,238.24 L457.0017,236.9676 L454.5402,235.6972 L452.1354,234.4287 L449.7873,233.1623 L447.4958,231.898 L445.2608,230.6359 L443.0823,229.376 L440.9601,228.1185 L438.8942,226.8633 L436.8846,225.6105 L434.931,224.3602 L433.0334,223.1125 L431.1916,221.8673 L429.4056,220.6249 L427.6751,219.3851 L426,218.1482 L424.3801,216.914 L422.8154,215.6827 L421.3055,214.4543 L419.8502,213.2289 L418.4495,212.0064 L417.103,210.7869 L415.8105,209.5705 L414.5718,208.3571 L413.3866,207.1467 L412.2547,205.9393 L411.1758,204.735 L410.1496,203.5336 L409.1759,202.3353 L408.2544,201.1398 L407.3848,199.9472 L406.5668,198.7574 L405.8001,197.5703 L405.0845,196.3858 L404.4197,195.2039 L403.8053,194.0243 L403.2412,192.8471 L402.7271,191.6719 L402.2627,190.4988 L401.8479,189.3275 L401.4823,188.1578 L401.1659,186.9896 L400.8985,185.8227 L400.6799,184.6569 L400.51,183.4919 L400.3887,182.3275 L400.316,181.1637 L400.2917,180 L400.316,178.8363 L400.3887,177.6725 L400.51,176.5081 L400.6799,175.3431 L400.8985,174.1773 L401.1659,173.0104 L401.4823,171.8422 L401.8479,170.6725 L402.2627,169.5012 L402.7271,168.3281 L403.2412,167.1529 L403.8053,165.9757 L404.4197,164.7961 L405.0845,163.6142 L405.8001,162.4297 L406.5668,161.2426 L407.3848,160.0528 L408.2544,158.8602 L409.1759,157.6647 L410.1496,156.4664 L411.1758,155.265 L412.2547,154.0607 L413.3866,152.8533 L414.5718,151.6429 L415.8105,150.4295 L417.103,149.2131 L418.4495,147.9936 L419.8502,146.7711 L421.3055,145.5457 L422.8154,144.3173 L424.3801,143.086 L426,141.8518 L427.6751,140.6149 L429.4056,139.3751 L431.1916,138.1327 L433.0334,136.8875 L434.931,135.6398 L436.8846,134.3895 L438.8942,133.1367 L440.9601,131.8815 L443.0823,130.624 L445.2608,129.3641 L447.4958,128.102 L449.7873,126.8377 L452.1354,125.5713 L454.5402,124.3028 L457.0017,123.0324 L459.52,121.76" fill="none" stroke="#b8beb8" stroke-width="3" transform="translate(-.5,-1)"/></g><g transform="translate(640,360)"><path d="M172.032,234.016 L211.968,253.984" stroke="#543d2b" stroke-width="11"/><path d="M172.032,232.516 L211.968,252.484" stroke="#ae8050" stroke-width="7"/><path d="M195.2552,223.3753 L231.4115,245.0691" stroke="#543d2b" stroke-width="11"/><path d="M195.2552,221.8753 L231.4115,243.5691" stroke="#ae8050" stroke-width="7"/><path d="M219.0025,214.4741 L250.3309,237.9704" stroke="#543d2b" stroke-width="11"/><path d="M219.0025,212.9741 L250.3309,236.4704" stroke="#ae8050" stroke-width="7"/><path d="M243.3711,207.3711 L268.6289,232.6289" stroke="#543d2b" stroke-width="11"/><path d="M243.3711,205.8711 L268.6289,231.1289" stroke="#ae8050" stroke-width="7"/><path d="M268.4034,202.1606 L286.2633,228.9505" stroke="#543d2b" stroke-width="11"/><path d="M268.4034,200.6606 L286.2633,227.4505" stroke="#ae8050" stroke-width="7"/><path d="M294.0242,198.9615 L303.3091,226.8163" stroke="#543d2b" stroke-width="11"/><path d="M294.0242,197.4615 L303.3091,225.3163" stroke="#ae8050" stroke-width="7"/><path d="M320,197.8805 L320,226.1195" stroke="#543d2b" stroke-width="11"/><path d="M320,196.3805 L320,224.6195" stroke="#ae8050" stroke-width="7"/><path d="M345.9758,198.9615 L336.6909,226.8163" stroke="#543d2b" stroke-width="11"/><path d="M345.9758,197.4615 L336.6909,225.3163" stroke="#ae8050" stroke-width="7"/><path d="M371.5966,202.1606 L353.7367,228.9505" stroke="#543d2b" stroke-width="11"/><path d="M371.5966,200.6606 L353.7367,227.4505" stroke="#ae8050" stroke-width="7"/><path d="M396.6289,207.3711 L371.3711,232.6289" stroke="#543d2b" stroke-width="11"/><path d="M396.6289,205.8711 L371.3711,231.1289" stroke="#ae8050" stroke-width="7"/><path d="M420.9975,214.4741 L389.6691,237.9704" stroke="#543d2b" stroke-width="11"/><path d="M420.9975,212.9741 L389.6691,236.4704" stroke="#ae8050" stroke-width="7"/><path d="M444.7448,223.3753 L408.5885,245.0691" stroke="#543d2b" stroke-width="11"/><path d="M444.7448,221.8753 L408.5885,243.5691" stroke="#ae8050" stroke-width="7"/><path d="M467.968,234.016 L428.032,253.984" stroke="#543d2b" stroke-width="11"/><path d="M467.968,232.516 L428.032,252.484" stroke="#ae8050" stroke-width="7"/><path d="M180.48,238.24 L183.2686,236.8602 L186.061,235.5077 L188.8574,234.1823 L191.6579,232.8841 L194.4627,231.6132 L197.2718,230.3696 L200.0854,229.1533 L202.9036,227.9644 L205.7265,226.8029 L208.5543,225.6688 L211.3871,224.5623 L214.225,223.4833 L217.068,222.432 L219.9164,221.4083 L222.7703,220.4125 L225.6296,219.4444 L228.4946,218.5044 L231.3654,217.5923 L234.242,216.7084 L237.1244,215.8527 L240.0128,215.0253 L242.9072,214.2263 L245.8076,213.4559 L248.7141,212.7141 L251.6267,212.0011 L254.5453,211.3171 L257.47,210.6621 L260.4006,210.0363 L263.3372,209.4398 L266.2796,208.8728 L269.2277,208.3354 L272.1814,207.8277 L275.1406,207.3499 L278.105,206.9022 L281.0744,206.4846 L284.0487,206.0973 L287.0275,205.7405 L290.0106,205.4142 L292.9976,205.1187 L295.9883,204.8539 L298.9823,204.6199 L301.9793,204.417 L304.9787,204.2452 L307.9804,204.1045 L310.9837,203.995 L313.9884,203.9167 L316.994,203.8698 L320,203.8541 L323.006,203.8698 L326.0116,203.9167 L329.0163,203.995 L332.0196,204.1045 L335.0213,204.2452 L338.0207,204.417 L341.0177,204.6199 L344.0117,204.8539 L347.0024,205.1187 L349.9894,205.4142 L352.9725,205.7405 L355.9513,206.0973 L358.9256,206.4846 L361.895,206.9022 L364.8594,207.3499 L367.8186,207.8277 L370.7723,208.3354 L373.7204,208.8728 L376.6628,209.4398 L379.5994,210.0363 L382.53,210.6621 L385.4547,211.3171 L388.3733,212.0011 L391.2859,212.7141 L394.1924,213.4559 L397.0928,214.2263 L399.9872,215.0253 L402.8756,215.8527 L405.758,216.7084 L408.6346,217.5923 L411.5054,218.5044 L414.3704,219.4444 L417.2297,220.4125 L420.0836,221.4083 L422.932,222.432 L425.775,223.4833 L428.6129,224.5623 L431.4457,225.6688 L434.2735,226.8029 L437.0964,227.9644 L439.9146,229.1533 L442.7282,230.3696 L445.5373,231.6132 L448.3421,232.8841 L451.1426,234.1823 L453.939,235.5077 L456.7314,236.8602 L459.52,238.24" fill="none" stroke="#454844" stroke-width="7"/><path d="M180.48,238.24 L183.2686,236.8602 L186.061,235.5077 L188.8574,234.1823 L191.6579,232.8841 L194.4627,231.6132 L197.2718,230.3696 L200.0854,229.1533 L202.9036,227.9644 L205.7265,226.8029 L208.5543,225.6688 L211.3871,224.5623 L214.225,223.4833 L217.068,222.432 L219.9164,221.4083 L222.7703,220.4125 L225.6296,219.4444 L228.4946,218.5044 L231.3654,217.5923 L234.242,216.7084 L237.1244,215.8527 L240.0128,215.0253 L242.9072,214.2263 L245.8076,213.4559 L248.7141,212.7141 L251.6267,212.0011 L254.5453,211.3171 L257.47,210.6621 L260.4006,210.0363 L263.3372,209.4398 L266.2796,208.8728 L269.2277,208.3354 L272.1814,207.8277 L275.1406,207.3499 L278.105,206.9022 L281.0744,206.4846 L284.0487,206.0973 L287.0275,205.7405 L290.0106,205.4142 L292.9976,205.1187 L295.9883,204.8539 L298.9823,204.6199 L301.9793,204.417 L304.9787,204.2452 L307.9804,204.1045 L310.9837,203.995 L313.9884,203.9167 L316.994,203.8698 L320,203.8541 L323.006,203.8698 L326.0116,203.9167 L329.0163,203.995 L332.0196,204.1045 L335.0213,204.2452 L338.0207,204.417 L341.0177,204.6199 L344.0117,204.8539 L347.0024,205.1187 L349.9894,205.4142 L352.9725,205.7405 L355.9513,206.0973 L358.9256,206.4846 L361.895,206.9022 L364.8594,207.3499 L367.8186,207.8277 L370.7723,208.3354 L373.7204,208.8728 L376.6628,209.4398 L379.5994,210.0363 L382.53,210.6621 L385.4547,211.3171 L388.3733,212.0011 L391.2859,212.7141 L394.1924,213.4559 L397.0928,214.2263 L399.9872,215.0253 L402.8756,215.8527 L405.758,216.7084 L408.6346,217.5923 L411.5054,218.5044 L414.3704,219.4444 L417.2297,220.4125 L420.0836,221.4083 L422.932,222.432 L425.775,223.4833 L428.6129,224.5623 L431.4457,225.6688 L434.2735,226.8029 L437.0964,227.9644 L439.9146,229.1533 L442.7282,230.3696 L445.5373,231.6132 L448.3421,232.8841 L451.1426,234.1823 L453.939,235.5077 L456.7314,236.8602 L459.52,238.24" fill="none" stroke="#b8beb8" stroke-width="3" transform="translate(-.5,-1)"/><path d="M203.52,249.76 L206.0648,248.5009 L208.6057,247.2701 L211.1426,246.0677 L213.6754,244.8937 L216.204,243.7479 L218.7282,242.6304 L221.2479,241.5411 L223.7631,240.4801 L226.2735,239.4471 L228.779,238.4423 L231.2796,237.4655 L233.775,236.5167 L236.2653,235.5958 L238.7502,234.7028 L241.2297,233.8375 L243.7037,233 L246.172,232.1901 L248.6346,231.4077 L251.0914,230.6527 L253.5423,229.9251 L255.9872,229.2247 L258.4261,228.5515 L260.859,227.9052 L263.2859,227.2859 L265.7067,226.6933 L268.1214,226.1273 L270.53,225.5879 L272.9327,225.0748 L275.3295,224.588 L277.7204,224.1272 L280.1056,223.6924 L282.4852,223.2834 L284.8594,222.9001 L287.2284,222.5423 L289.5922,222.2098 L291.9513,221.9027 L294.3059,221.6206 L296.6561,221.3635 L299.0024,221.1313 L301.345,220.9239 L303.6843,220.7412 L306.0207,220.583 L308.3546,220.4493 L310.6863,220.34 L313.0163,220.255 L315.3449,220.1944 L317.6727,220.158 L320,220.1459 L322.3273,220.158 L324.6551,220.1944 L326.9837,220.255 L329.3137,220.34 L331.6454,220.4493 L333.9793,220.583 L336.3157,220.7412 L338.655,220.9239 L340.9976,221.1313 L343.3439,221.3635 L345.6941,221.6206 L348.0487,221.9027 L350.4078,222.2098 L352.7716,222.5423 L355.1406,222.9001 L357.5148,223.2834 L359.8944,223.6924 L362.2796,224.1272 L364.6705,224.588 L367.0673,225.0748 L369.47,225.5879 L371.8786,226.1273 L374.2933,226.6933 L376.7141,227.2859 L379.141,227.9052 L381.5739,228.5515 L384.0128,229.2247 L386.4577,229.9251 L388.9086,230.6527 L391.3654,231.4077 L393.828,232.1901 L396.2963,233 L398.7703,233.8375 L401.2498,234.7028 L403.7347,235.5958 L406.225,236.5167 L408.7204,237.4655 L411.221,238.4423 L413.7265,239.4471 L416.2369,240.4801 L418.7521,241.5411 L421.2718,242.6304 L423.796,243.7479 L426.3246,244.8937 L428.8574,246.0677 L431.3943,247.2701 L433.9352,248.5009 L436.48,249.76" fill="none" stroke="#454844" stroke-width="7"/><path d="M203.52,249.76 L206.0648,248.5009 L208.6057,247.2701 L211.1426,246.0677 L213.6754,244.8937 L216.204,243.7479 L218.7282,242.6304 L221.2479,241.5411 L223.7631,240.4801 L226.2735,239.4471 L228.779,238.4423 L231.2796,237.4655 L233.775,236.5167 L236.2653,235.5958 L238.7502,234.7028 L241.2297,233.8375 L243.7037,233 L246.172,232.1901 L248.6346,231.4077 L251.0914,230.6527 L253.5423,229.9251 L255.9872,229.2247 L258.4261,228.5515 L260.859,227.9052 L263.2859,227.2859 L265.7067,226.6933 L268.1214,226.1273 L270.53,225.5879 L272.9327,225.0748 L275.3295,224.588 L277.7204,224.1272 L280.1056,223.6924 L282.4852,223.2834 L284.8594,222.9001 L287.2284,222.5423 L289.5922,222.2098 L291.9513,221.9027 L294.3059,221.6206 L296.6561,221.3635 L299.0024,221.1313 L301.345,220.9239 L303.6843,220.7412 L306.0207,220.583 L308.3546,220.4493 L310.6863,220.34 L313.0163,220.255 L315.3449,220.1944 L317.6727,220.158 L320,220.1459 L322.3273,220.158 L324.6551,220.1944 L326.9837,220.255 L329.3137,220.34 L331.6454,220.4493 L333.9793,220.583 L336.3157,220.7412 L338.655,220.9239 L340.9976,221.1313 L343.3439,221.3635 L345.6941,221.6206 L348.0487,221.9027 L350.4078,222.2098 L352.7716,222.5423 L355.1406,222.9001 L357.5148,223.2834 L359.8944,223.6924 L362.2796,224.1272 L364.6705,224.588 L367.0673,225.0748 L369.47,225.5879 L371.8786,226.1273 L374.2933,226.6933 L376.7141,227.2859 L379.141,227.9052 L381.5739,228.5515 L384.0128,229.2247 L386.4577,229.9251 L388.9086,230.6527 L391.3654,231.4077 L393.828,232.1901 L396.2963,233 L398.7703,233.8375 L401.2498,234.7028 L403.7347,235.5958 L406.225,236.5167 L408.7204,237.4655 L411.221,238.4423 L413.7265,239.4471 L416.2369,240.4801 L418.7521,241.5411 L421.2718,242.6304 L423.796,243.7479 L426.3246,244.8937 L428.8574,246.0677 L431.3943,247.2701 L433.9352,248.5009 L436.48,249.76" fill="none" stroke="#b8beb8" stroke-width="3" transform="translate(-.5,-1)"/></g></svg>